<svg id="Layer_1" data-name="Layer 1" xmlns="http://www.w3.org/2000/svg" xmlns:xlink="http://www.w3.org/1999/xlink" viewBox="0 0 457.86 246.92"><defs><linearGradient id="linear-gradient" x1="110.3" y1="276.88" x2="63.54" y2="217.97" gradientUnits="userSpaceOnUse"><stop offset="0" stop-opacity="0"/><stop offset="0.99"/></linearGradient><linearGradient id="linear-gradient-2" x1="107.18" y1="286.84" x2="20.07" y2="216.7" xlink:href="#linear-gradient"/><linearGradient id="linear-gradient-3" x1="384.75" y1="153.56" x2="391.51" y2="179.92" xlink:href="#linear-gradient"/><linearGradient id="linear-gradient-4" x1="384.39" y1="177.93" x2="375.29" y2="205.51" xlink:href="#linear-gradient"/><linearGradient id="linear-gradient-5" x1="382.26" y1="211.75" x2="391.43" y2="181.95" xlink:href="#linear-gradient"/><linearGradient id="linear-gradient-6" x1="377.62" y1="156.96" x2="386.74" y2="156.96" gradientUnits="userSpaceOnUse"><stop offset="0" stop-color="#e5c5d5"/><stop offset="0.42" stop-color="#ead4d1"/><stop offset="1" stop-color="#f0e9cb"/></linearGradient><linearGradient id="linear-gradient-7" x1="194.49" y1="204.27" x2="289.54" y2="210.69" xlink:href="#linear-gradient"/><linearGradient id="linear-gradient-8" x1="156.3" y1="234.76" x2="120.77" y2="111.66" xlink:href="#linear-gradient"/><linearGradient id="linear-gradient-9" x1="132.8" y1="190.97" x2="60.19" y2="203.3" xlink:href="#linear-gradient"/><linearGradient id="linear-gradient-10" x1="83.95" y1="213.72" x2="33.29" y2="219" xlink:href="#linear-gradient"/><linearGradient id="linear-gradient-11" x1="73.36" y1="165.09" x2="92.31" y2="165.09" xlink:href="#linear-gradient-6"/><linearGradient id="linear-gradient-12" x1="81.66" y1="166.62" x2="84.07" y2="131.21" xlink:href="#linear-gradient"/><linearGradient id="linear-gradient-13" x1="44.93" y1="181.92" x2="53.41" y2="234.19" xlink:href="#linear-gradient"/><linearGradient id="linear-gradient-14" x1="136.23" y1="183.93" x2="172.16" y2="183.93" xlink:href="#linear-gradient-6"/><linearGradient id="linear-gradient-15" x1="44.25" y1="185.49" x2="13.54" y2="228.59" xlink:href="#linear-gradient"/><linearGradient id="linear-gradient-16" x1="233.34" y1="177.13" x2="226.47" y2="331.86" gradientTransform="translate(463.48 426.51) rotate(180)" xlink:href="#linear-gradient"/><linearGradient id="linear-gradient-17" x1="234.01" y1="177.16" x2="227.14" y2="331.89" gradientTransform="translate(463.48 456.77) rotate(180)" xlink:href="#linear-gradient"/><linearGradient id="linear-gradient-18" x1="200.63" y1="21.96" x2="188.25" y2="226.44" xlink:href="#linear-gradient"/><linearGradient id="linear-gradient-19" x1="292.67" y1="106.8" x2="282.35" y2="238.84" gradientTransform="translate(580.13 280.26) rotate(-180)" xlink:href="#linear-gradient"/><linearGradient id="linear-gradient-20" x1="293.67" y1="106.88" x2="283.36" y2="238.92" gradientTransform="translate(580.13 306.06) rotate(180)" xlink:href="#linear-gradient"/><linearGradient id="linear-gradient-21" x1="370.66" y1="147.12" x2="386.73" y2="147.12" xlink:href="#linear-gradient-6"/><linearGradient id="linear-gradient-22" x1="19.18" y1="180.42" x2="30.64" y2="180.42" xlink:href="#linear-gradient-6"/><linearGradient id="linear-gradient-23" x1="386.37" y1="200.35" x2="377.82" y2="177.35" xlink:href="#linear-gradient"/><linearGradient id="linear-gradient-24" x1="387.52" y1="189.31" x2="408.66" y2="181.93" xlink:href="#linear-gradient"/><linearGradient id="linear-gradient-25" x1="368.36" y1="183.76" x2="372.99" y2="183.76" xlink:href="#linear-gradient-6"/><linearGradient id="linear-gradient-26" x1="392.18" y1="186.15" x2="395.73" y2="186.15" xlink:href="#linear-gradient-6"/><linearGradient id="linear-gradient-27" x1="76.65" y1="146.15" x2="91.56" y2="146.15" xlink:href="#linear-gradient-6"/></defs><title>Team Presentation 4</title><path d="M418.53,280.11a60.91,60.91,0,0,1-10.48,12h0a81.21,81.21,0,0,1-16.95,11.52,122.55,122.55,0,0,1-22.43,8.83,172.13,172.13,0,0,1-18.6,4.28c-36.36,6.37-79.95,3.52-118.18-5.74-5-1.2-9.86-2.51-14.62-3.93A242.67,242.67,0,0,1,191.59,298,179.25,179.25,0,0,0,96.33,285.6q-4.2.6-8,1.32c-5.43,1-10.2,2.19-14.22,3.31a112.3,112.3,0,0,0-14.59,5C26.54,285.61-6.93,232.89,1.33,177,12.24,103,85.68,75.18,146.2,95.81s89.41-33,224.2-20.63S452.92,227.85,418.53,280.11Z" transform="translate(-0.06 -73.3)" fill="#68e1fd" opacity="0.18" style="isolation:isolate"/><path d="M115.34,283.91a178.47,178.47,0,0,0-19,1.69q-6.87-16.26-13-32.8-1.71-4.59-3.35-9.19c.92-.56,1.92-1.18,3-1.8,4.27-2.5,9.44-5.05,14.07-4.24,5.47,1,6.35,6.65,7.72,11.2Z" transform="translate(-0.06 -73.3)" fill="#68e1fd"/><path d="M115.41,283.61a176.24,176.24,0,0,0-19,1.68q-6.86-16.25-13-32.8-1.71-4.58-3.34-9.18c.92-.57,1.92-1.18,3-1.8,4.26-2.5,9.43-5,14.07-4.25,5.47,1,6.35,6.66,7.72,11.21Q110.12,266,115.41,283.61Z" transform="translate(-0.06 -73.3)" fill="url(#linear-gradient)"/><path d="M88.36,286.92c-5.43,1-10.2,2.19-14.22,3.31a14.28,14.28,0,0,1-1.39-2.4,128.73,128.73,0,0,1-12.22-39.26c-.53-4-1.09-10.93,2.93-13.62s10.76.21,13.91,3a7.82,7.82,0,0,1,2.14,2.84c.56,1.37,7.11-2,7.06-.54l0,1.33c-.06,3.48.07,7.17.37,11C87.75,263.86,86.33,276.32,88.36,286.92Z" transform="translate(-0.06 -73.3)" fill="#68e1fd"/><path d="M88.13,286.8c-5.43,1-10.2,2.19-14.22,3.32a15.55,15.55,0,0,1-1.39-2.41,128.65,128.65,0,0,1-12.21-39.25c-.54-4-1.1-10.94,2.92-13.63s10.76.22,13.91,3a7.87,7.87,0,0,1,2.14,2.83c.56,1.38,7.11-2,7.06-.54l0,1.34c-.06,3.47.08,7.17.37,11C87.52,263.75,86.1,276.2,88.13,286.8Z" transform="translate(-0.06 -73.3)" fill="url(#linear-gradient-2)"/><path d="M408.05,292.15h0a81.21,81.21,0,0,1-16.95,11.52c-1.07-16.05-6.29-34.28-7.87-47.41-4.39,12.78-6,19.36-8.87,32.57-.11.54-3.13,13.41-5.69,23.67a172.13,172.13,0,0,1-18.6,4.28c2.2-10.76,5.74-26.23,5.87-27a336.69,336.69,0,0,0,4.18-34.67c.34-4.81-1.08-13.3.79-17.64,1.71-3.95,7.08-2.11,10.82-2.84A91.5,91.5,0,0,1,398,233.51c1.88.18,4,.55,5.07,2.09a7,7,0,0,1,1,3.48q2.25,24.63,4.52,49.26A6.57,6.57,0,0,1,408.05,292.15Z" transform="translate(-0.06 -73.3)" fill="#3e3e54"/><path d="M402.59,203.93c-.79,7.15-1.16,14.43-.54,16.88q2,8,4,15.92c-6.39,3.73-40.51,4.71-47.88-.06-.26-.17-.57-.43-.48-.74s.48-.13.51,0c1.91-4.38,6.41-23.16,8.56-35.25h0c1-5.31,1.45-9.31,1.08-10.25s-.77-2-1.16-2.93l-4.44-11.29c-.53-1.34-.88-2.2-2.23-1.72,1.3-4.6,3.3-9.18,6.86-12.38,5.59-5,13.85-5.63,21.31-4.81a31.85,31.85,0,0,1,9.78,2.38,15.21,15.21,0,0,1,7.38,6.64,16.47,16.47,0,0,1,1.38,4.17,33.16,33.16,0,0,1-.41,14.46c-.32,1.33-.7,2.66-1.14,4C404.26,191.68,403.27,197.75,402.59,203.93Z" transform="translate(-0.06 -73.3)" fill="#68e1fd"/><path d="M390.94,158.76a1.62,1.62,0,0,0-.72-.41c-1.92-.67-5.49-1.71-7.5-.92s-1.36,3.52-.33,4.8a3.21,3.21,0,0,0,4.4.83C387.66,162.5,392.09,160.09,390.94,158.76Z" transform="translate(-0.06 -73.3)" fill="url(#linear-gradient-3)"/><path d="M374.55,178c.45,1.27.69,2.73,1.73,3.61a4.86,4.86,0,0,0,1.44.77c5.12,1.92,10.78,1.28,16.24,1.53a9.9,9.9,0,0,1,3.29.57c.3.13.65.37.61.7s-.48.5-.84.55l-11.72,1.81c-2.35.37-4.7.73-7.08.92a11.12,11.12,0,0,1-5.32-.55,2.7,2.7,0,0,1-.83-.54,3.19,3.19,0,0,1-.49-.76,12.94,12.94,0,0,1-1.85-7.77v-3.55c0-.55,0-1.77.6-2s1.39.65,1.78,1A9.85,9.85,0,0,1,374.55,178Z" transform="translate(-0.06 -73.3)" fill="url(#linear-gradient-4)"/><path d="M402.75,192a4.21,4.21,0,0,1,.64.39c.31.21.68.35.79.67s-.24,1.27-.31,1.64c-.18,1.05-.35,2.09-.51,3.14-.07.51-.75,6.13-.77,6.13-1.63-.06-.17,9.64-1.78,9.4-9.48-1.42-22.25-10-31.79-11a2.72,2.72,0,0,1-1.57-.51,2.87,2.87,0,0,1-.67-1.15c-.24-.64.43-2.43.54-3.12.21-1.34.18-1.47,1.43-2a44.64,44.64,0,0,1,6.18-2.82,27,27,0,0,1,6.73-.62c5.17-.14,11,2.91,16.19,2.55C399.73,194.54,401.09,191.14,402.75,192Z" transform="translate(-0.06 -73.3)" fill="url(#linear-gradient-5)"/><path d="M386.7,157.78a9.61,9.61,0,0,1-.94,5.11,7.26,7.26,0,0,1-2.37,2.24c-1.44.93-3.18,1.66-4.83,1.19A1.19,1.19,0,0,1,378,166a1.29,1.29,0,0,1-.24-.66,19.13,19.13,0,0,1,.6-6.8l1.18-5.57c.43-2.05,1.11-4.39,3-5.19a4.71,4.71,0,0,1,3.5,0c.92.57.63,1.31.63,2.45Q386.71,154,386.7,157.78Z" transform="translate(-0.06 -73.3)" fill="url(#linear-gradient-6)"/><path d="M233,103.67l-1.06,207.38c-5-1.2-9.86-2.51-14.62-3.93l1-203.54Z" transform="translate(-0.06 -73.3)" fill="#68e1fd"/><path d="M226,103.91l-1.84,204.86c-5-1.2-2.11-.23-6.87-1.65l1-203.54Z" transform="translate(-0.06 -73.3)" fill="url(#linear-gradient-7)"/><rect x="121.96" y="111.88" width="220.91" height="5.72" transform="translate(464.76 156.18) rotate(-180)" fill="#3e3e54"/><polygon points="331.46 183.2 117.64 183.2 124.62 43.63 338.43 43.63 331.46 183.2" fill="#68e1fd"/><path d="M127.29,215.19c2.47-.89,4.43-2.77,6.27-4.65,5-5.09,9.64-10.51,14.31-15.91,1.91-2.2,4.19-4.58,7.1-4.61,1.37,0,2.72.5,4.09.38,2.34-.21,4.84-2.2,6.73-.82,1,.7,2,2.17,2.87,1.43a12.05,12.05,0,0,1-.95-5.17c.21-1.75,1.45-3.52,3.2-3.73a33.49,33.49,0,0,0-29.46,6.14,10.78,10.78,0,0,1-3.2,2.09,13.38,13.38,0,0,0-2,.58,5.4,5.4,0,0,0-1.73,1.57l-9.88,11.94c-1.65,2-5.2,6-4.35,8.86C121.11,216,125.08,216,127.29,215.19Z" transform="translate(-0.06 -73.3)" fill="url(#linear-gradient-8)"/><path d="M145.56,192.69l-5.18,3.9-19.22,14.47a1.92,1.92,0,0,1-1,.46A1.87,1.87,0,0,1,119,211c-7.92-6.5-14.72-14.25-21.47-22a14.51,14.51,0,0,1-3-4.4,5.84,5.84,0,0,1-.29-1.09,9.81,9.81,0,0,1,1.13-6.45c.95-1.8,3.47-5.77,5.46-6.5,2.63-1,4.75,3.53,6,5.27q6.36,8.46,13.35,16.41c.58.65,1.3,1.36,2.16,1.27a2.85,2.85,0,0,0,1.38-.73l13.07-10.47Q141.2,187.51,145.56,192.69Z" transform="translate(-0.06 -73.3)" fill="#68e1fd"/><path d="M140.38,196.59l-19.22,14.47a1.92,1.92,0,0,1-1,.46A1.87,1.87,0,0,1,119,211c-7.92-6.5-14.72-14.25-21.47-22a14.51,14.51,0,0,1-3-4.4,5.84,5.84,0,0,1-.29-1.09c1.19-1.95,3.1-4.57,4.68-5.16,2.64-1,4.75,3.54,6,5.27q6.35,8.47,13.36,16.41c.57.65,1.29,1.36,2.15,1.27a2.79,2.79,0,0,0,1.38-.72l13.06-10.47C136.76,192.26,138.56,194.42,140.38,196.59Z" transform="translate(-0.06 -73.3)" fill="url(#linear-gradient-9)"/><path d="M94.31,140.24c1.53-1.73,3.14-3.65,3.31-6a9.73,9.73,0,0,0-1.85-5.57,8.06,8.06,0,0,0-1.64-2.07,8.19,8.19,0,0,0-3-1.38,21.6,21.6,0,0,0-10.86-.76c-3.57.84-6.92,3.31-8,6.82-2.21-1.73-5.47-1.17-8,.13-4.7,2.46-8.16,7.83-7,13,.76,3.59,3.44,6.42,6,9a12.12,12.12,0,0,0-9.16,9.65,13.34,13.34,0,0,0,5,12.5A18.48,18.48,0,0,0,70,179.05a54.44,54.44,0,0,0,11.49-1.33c3.93-.73,8-1.55,11.18-4a14.79,14.79,0,0,0,5-7.86,22.68,22.68,0,0,0,.27-9.39,5.93,5.93,0,0,0-1.26-3.17A6.48,6.48,0,0,0,94.75,152l-3.94-2a5.41,5.41,0,0,1-2.89-2.49c-.74-1.91.88-3.92,2.61-5s3.8-1.87,4.85-3.62" transform="translate(-0.06 -73.3)" fill="#3e3e54"/><path d="M106.78,235.16c.08.3-.22.57-.49.74a119,119,0,0,1-23.52,11.73,6.27,6.27,0,0,1-2.65.52,6.28,6.28,0,0,1-2.54-1l-6.11-3.57q-6.54-3.8-13-7.61c1.33-5.31,2.68-10.62,4-15.93,1.16-4.56,2.37-9.27,5.18-13.06a2,2,0,0,0,.55-1.2,1.84,1.84,0,0,0-.4-1,78.21,78.21,0,0,1-8.46-16.63,35.28,35.28,0,0,1-1.57-18.42,15.65,15.65,0,0,1,1.4-4.17c3.17-5.88,11.59-4,14.94-4.36,7.47-.81,22.22,1.26,27.81,6.27,3.56,3.2,1.28,1.67,2.58,6.27-1.35-.48-1.7.38-2.23,1.72q-2.81,7.09-5.6,14.22a45.86,45.86,0,0,0-3,9.45c-1.08,6.53.71,13.31,4,19a189,189,0,0,1,8.57,17C106.29,235,106.71,234.91,106.78,235.16Z" transform="translate(-0.06 -73.3)" fill="#68e1fd"/><path d="M71.71,243.2c.16.24.06.35-.24.37q-6.54-3.8-13-7.61c1.33-5.31,2.68-10.62,4-15.93,1.16-4.56,2.37-9.27,5.18-13.06a2,2,0,0,0,.55-1.2,1.84,1.84,0,0,0-.4-1,78.21,78.21,0,0,1-8.46-16.63L66,187l9.17,18.57S70.09,240.91,71.71,243.2Z" transform="translate(-0.06 -73.3)" fill="url(#linear-gradient-10)"/><path d="M85.42,153a.53.53,0,0,0-.18.41A8.86,8.86,0,0,0,90,161.92c.83.42,1.82.79,2.17,1.65a2.81,2.81,0,0,1,.14,1.19c0,.71-.13,1.42-.23,2.12-.45,3.18-1,6.6-3.28,8.87a15.57,15.57,0,0,1-1.86,1.49,7.93,7.93,0,0,1-2.77,1.42c-1.68.36-3.38-.38-4.93-1.1a8.18,8.18,0,0,1-1.75-1A6.81,6.81,0,0,1,76,174.69,20.36,20.36,0,0,1,73.43,163a2,2,0,0,1,.2-.84c.3-.51.94-.67,1.46-1a4.14,4.14,0,0,0,1.81-2.72c.28-1.09.33-2.22.59-3.31a8.94,8.94,0,0,1,1.08-2.59,2.49,2.49,0,0,1,.75-.83,2.68,2.68,0,0,1,1.34-.29,19,19,0,0,1,2.39.09,1.42,1.42,0,0,1,.75.21.54.54,0,0,1,.2.68" transform="translate(-0.06 -73.3)" fill="url(#linear-gradient-11)"/><path d="M79.32,151.71s1.89,7.19,4.59,7.71,1.43-4.36,1.43-4.36Z" transform="translate(-0.06 -73.3)" fill="url(#linear-gradient-12)"/><path d="M58.22,174Q53.75,185.29,50,196.81a108.42,108.42,0,0,1-15.52-12.93,2.13,2.13,0,0,0-1.18-.75,2,2,0,0,0-1.11.3,43.81,43.81,0,0,0-6.73,4.07,1.55,1.55,0,0,0-.72.88,1.58,1.58,0,0,0,.46,1.21c5.33,7,12.19,12.65,19,18.24,1.86,1.53,4.19,3.16,6.48,2.4a7.43,7.43,0,0,0,2.24-1.45l14.54-12.23a2.48,2.48,0,0,0,.82-1,2.28,2.28,0,0,0-.17-1.51c-2.24-6.3-4-16.85-9.88-20" transform="translate(-0.06 -73.3)" fill="#68e1fd"/><path d="M58.22,174Q53.75,185.29,50,196.81a108.42,108.42,0,0,1-15.52-12.93,2.13,2.13,0,0,0-1.18-.75,2,2,0,0,0-1.11.3,43.81,43.81,0,0,0-6.73,4.07,1.55,1.55,0,0,0-.72.88,1.58,1.58,0,0,0,.46,1.21c5.33,7,12.19,12.65,19,18.24,1.86,1.53,4.19,3.16,6.48,2.4a7.43,7.43,0,0,0,2.24-1.45l14.54-12.23a2.48,2.48,0,0,0,.82-1,2.28,2.28,0,0,0-.17-1.51c-2.24-6.3-4-16.85-9.88-20" transform="translate(-0.06 -73.3)" fill="url(#linear-gradient-13)"/><path d="M144,180.05a11.39,11.39,0,0,1,2.58-1.47,11.64,11.64,0,0,1,2.11-.53l8.37-1.6a1.3,1.3,0,0,1,.83,0,1.74,1.74,0,0,1,.53.55c.93,1.2,2.64,1.4,4.16,1.43a49.06,49.06,0,0,0,6.18-.26,5.18,5.18,0,0,1,2.15.07,1.65,1.65,0,0,1,1.24,1.59,2.44,2.44,0,0,1-1.14,1.53l-2.22,1.73a13.89,13.89,0,0,1-2.27,1.53,10.88,10.88,0,0,1-3.26.93,26.55,26.55,0,0,1-11.35-.7,3.57,3.57,0,0,0-2.7-.08c-.86.5-1.07,1.63-1.55,2.51a8.07,8.07,0,0,1-3.22,2.78c-1.4.83-3,1.7-4.58,1.24-1.82-.54-4.54-3.49-3.34-5.4C138,183.58,141.76,181.6,144,180.05Z" transform="translate(-0.06 -73.3)" fill="url(#linear-gradient-14)"/><path d="M156.06,172.1a.62.62,0,0,0-.37-.07c-.24.07-.32.37-.3.62a3.64,3.64,0,0,0,1,2l7,8.51c2.48,3,5.06,6.11,8.55,7.88a38.17,38.17,0,0,0-4.81-6.37,10.81,10.81,0,0,1-1.35-1.59c-.67-1-1-2.31-1.89-3.19a26.9,26.9,0,0,1-2.61-2.62C159.79,175.33,158.4,173.07,156.06,172.1Z" transform="translate(-0.06 -73.3)" fill="#3e3e54"/><path d="M46.86,168.26a3.3,3.3,0,0,0-1-1.25,3.36,3.36,0,0,0-2.06-.29,114.08,114.08,0,0,0-21.63,3.71A174.77,174.77,0,0,0,41.69,213q10.92-3.88,21.67-8.23c-.74-4.33-10.58-25-11.84-27.63Q49.36,172.62,46.86,168.26Z" transform="translate(-0.06 -73.3)" fill="#fff"/><path d="M46.86,168.26a3.3,3.3,0,0,0-1-1.25,3.36,3.36,0,0,0-2.06-.29,114.08,114.08,0,0,0-21.63,3.71A174.77,174.77,0,0,0,41.69,213q10.92-3.88,21.67-8.23c-.74-4.33-10.58-25-11.84-27.63Q49.36,172.62,46.86,168.26Z" transform="translate(-0.06 -73.3)" fill="url(#linear-gradient-15)"/><rect x="114.56" y="255.45" width="220.91" height="5.72" transform="translate(449.97 443.32) rotate(-180)" fill="#3e3e54"/><rect x="144.82" y="208.38" width="173.83" height="9.75" rx="4.88" transform="translate(463.42 353.21) rotate(-180)" fill="url(#linear-gradient-16)"/><rect x="144.82" y="223.51" width="173.83" height="9.75" rx="4.88" transform="translate(463.42 383.47) rotate(-180)" fill="url(#linear-gradient-17)"/><circle cx="196.07" cy="97.23" r="26.47" fill="url(#linear-gradient-18)"/><path d="M190,160.83,176.28,139c-3.85-.07-27.26-.54-28-.54v-2c.83,0,27.44.52,28.57.55h.53l14.29,22.68Z" transform="translate(-0.06 -73.3)" fill="#fff"/><polygon points="251.71 110.5 226.78 110.5 205.99 100.52 206.84 98.75 227.23 108.53 251.71 108.53 251.71 110.5" fill="#fff"/><rect x="262.75" y="136.7" width="54.63" height="6.86" rx="3.43" transform="translate(580.07 206.96) rotate(180)" fill="url(#linear-gradient-19)"/><rect x="262.75" y="149.6" width="54.63" height="6.86" rx="3.43" transform="translate(580.07 232.76) rotate(-180)" fill="url(#linear-gradient-20)"/><path d="M87.26,204.8A39.85,39.85,0,0,1,84,197.7L79.51,186c-1.76-4.59-3.52-9.18-5-13.89.75,2.38,8.63,1.62,10.19,1.26a29.29,29.29,0,0,0,7.17-3.28C92.15,179.17,88.11,195.74,87.26,204.8Z" transform="translate(-0.06 -73.3)" fill="#fff"/><path d="M371.47,149.34a14.45,14.45,0,0,0,2.13,5.4,6.28,6.28,0,0,0,4.75,2.8,7,7,0,0,0,4.85-2.32,12.09,12.09,0,0,0,3.52-7.9,10.32,10.32,0,0,0-3.18-8,10,10,0,0,0-3.11-1.89c-2.32-.88-7.73-1.51-9.33,1.16-.65,1.1-.4,3-.38,4.24A35.26,35.26,0,0,0,371.47,149.34Z" transform="translate(-0.06 -73.3)" fill="url(#linear-gradient-21)"/><path d="M26.09,173.59a8.44,8.44,0,0,1,4.09,4.67,4.85,4.85,0,0,1,.33,3.06c-.27,1-1,1.82-1,2.82,0,.3.12.6.12.9,0,1.05-1,1.76-2,2.19a4.21,4.21,0,0,1-3.63.29,4.3,4.3,0,0,1-1.14-1,14.71,14.71,0,0,1-3.63-8c-.21-2.22-.34-4.43,2.14-5.19A6.49,6.49,0,0,1,26.09,173.59Z" transform="translate(-0.06 -73.3)" fill="url(#linear-gradient-22)"/><path d="M408.05,197.55a10.31,10.31,0,0,1-4.5,3,17.12,17.12,0,0,1-5.89.47l-21.59-.74a10.24,10.24,0,0,1-5-1,3.9,3.9,0,0,1-1.6-1.69c-.62-1.36-.22-2.93.2-4.36a2.14,2.14,0,0,1,.68-1.26,2.23,2.23,0,0,1,1.23-.3,245.83,245.83,0,0,1,25.32.25c-.42-.87-.84-1.76-1.23-2.66a47.85,47.85,0,0,1-2.34-6.56,35.06,35.06,0,0,1-.83-3.95c-.78-5.22-.6-13.62,3.89-17.36,4.81-4,9.16,7.41,10.73,10.51,2.06,4.06,3.91,8.32,4.42,12.84S411.07,194.15,408.05,197.55Z" transform="translate(-0.06 -73.3)" fill="#68e1fd"/><path d="M375.78,200.07a13.58,13.58,0,0,0,4.41-.45c.68-.22,1.33-.56,2-.73s1.19-.19,1.77-.33a10.48,10.48,0,0,0,1.64-.63l8.66-4a18.6,18.6,0,0,0,2.72-1.44.73.73,0,0,0,.28-.3c.15-.38-.32-.67-.64-.92-.64-.5-1-1.47-1.78-1.57a2.1,2.1,0,0,0-1.15.33c-6,3.08-13.11,3.25-19.31,5.92-.94.41-3.1,1.41-2.65,2.78S374.69,200.06,375.78,200.07Z" transform="translate(-0.06 -73.3)" fill="url(#linear-gradient-23)"/><path d="M399.66,186.2c-.41,1.76-2.07,2.72-3.87,3.36-.31.1-.62.21-.94.3h0l-1,.28A59,59,0,0,0,381,195.23c-4.23,2.28-8.74,5.18-13.44,4.2-3.44-.73-6.17-3.5-7.62-6.7a25.93,25.93,0,0,1-1.86-10.3c-.09-4.51.25-9.13,2.11-13.23,0,0,4.13-5.61,6.74-7.06s4.37,3.3,4.37,3.3c.44,1.24,1,14.83,1.22,20.29q9.51-.84,19-1.15l2.37-.08,3.79-.08c.71,0,1.57.06,1.92.69A1.56,1.56,0,0,1,399.66,186.2Z" transform="translate(-0.06 -73.3)" fill="#68e1fd"/><path d="M395.87,189.74a3.9,3.9,0,0,0-1,.12h0c-.87.19-1.92.47-1.92.47s-.82-2.69-1.18-3.78a5.73,5.73,0,0,1-.21-1.94v0l2.37-.08c.56,1.71,1.26,3.51,1.92,5.06A.71.71,0,0,1,395.87,189.74Z" transform="translate(-0.06 -73.3)" fill="url(#linear-gradient-24)"/><path d="M361.8,137.68c-1.82-1.82-2-4.75-2-7.39,3.34-1.28,7,.61,10.5.9,2.61.21,5.2-.46,7.8-.85s5.37-.47,7.68.81,3.89,4.33,2.86,6.84a2.19,2.19,0,0,1,2.39,1.06,5.13,5.13,0,0,1,.63,2.79,11.61,11.61,0,0,1-5.07,9.41c-1.18-2.61,1.19-6-.33-8.45a3.88,3.88,0,0,0-3.15-1.63,15.38,15.38,0,0,0-3.62.48c-3,.58-6.61,1-9.61.1C367.34,141,363.68,139.58,361.8,137.68Z" transform="translate(-0.06 -73.3)" fill="#3e3e54"/><path d="M370.11,181.06a2,2,0,0,0-1.75,2,3.49,3.49,0,0,0,1.27,2.53,2.67,2.67,0,0,0,2.42.82.89.89,0,0,0,.41-.21,1.37,1.37,0,0,0,.33-.9c.07-.77.39-2.22,0-2.94S370.85,181,370.11,181.06Z" transform="translate(-0.06 -73.3)" fill="url(#linear-gradient-25)"/><path d="M394.17,182.69a1,1,0,0,1,1.15.17,1.59,1.59,0,0,1,.28,1l.11,3.38a17.53,17.53,0,0,1,0,2.05.55.55,0,0,1-.11.33c-.17.17-.46,0-.65-.13a9.3,9.3,0,0,1-2.68-3.88C391.87,184.48,393.16,183.12,394.17,182.69Z" transform="translate(-0.06 -73.3)" fill="url(#linear-gradient-26)"/><path d="M90.8,148.12a12.2,12.2,0,0,1-2,4.81,5.85,5.85,0,0,1-4.41,2.49,6.56,6.56,0,0,1-4.49-2.06,10.54,10.54,0,0,1-3.27-7,9,9,0,0,1,3-7.09,9.35,9.35,0,0,1,2.88-1.68c2.16-.78,7.18-1.35,8.66,1,.6,1,.37,2.69.35,3.77A28.61,28.61,0,0,1,90.8,148.12Z" transform="translate(-0.06 -73.3)" fill="url(#linear-gradient-27)"/></svg>